<svg width="54" height="56" viewBox="0 0 54 56" fill="none" xmlns="http://www.w3.org/2000/svg">
<g clip-path="url(#clip0_50_238)">
<path d="M53.7908 33.5301C53.467 32.5441 52.6188 31.8573 51.5219 31.6925C51.0047 31.6149 50.4124 31.648 49.7115 31.7932C48.4897 32.0467 47.5833 32.1432 46.9218 32.1619C49.4187 27.9231 51.449 23.0893 52.6178 18.5391C54.5078 11.1816 53.4978 7.82976 52.3176 6.31367C49.1943 2.30074 44.6374 0.144953 39.1399 0.0789896C36.2073 0.0429326 33.6328 0.625147 32.2897 1.04383C31.0393 0.821976 29.6948 0.69811 28.284 0.675203C25.6395 0.632783 23.3029 1.21245 21.3064 2.40382C20.2011 2.02798 18.4271 1.49815 16.3785 1.16006C11.5603 0.364688 7.6769 0.984445 4.83642 3.00215C1.39687 5.44512 -0.197606 9.68966 0.0972849 15.6179C0.190941 17.5 1.23804 23.2267 2.88672 28.6578C3.83425 31.7795 4.84464 34.3717 5.88984 36.3634C7.3721 39.1875 8.95814 40.8505 10.7387 41.4478C11.7366 41.7821 13.5498 42.0162 15.4569 40.4191C15.6986 40.7135 16.0212 41.006 16.4492 41.2777C16.9927 41.6224 17.6574 41.904 18.3212 42.071C20.7135 42.6723 22.9543 42.5219 24.866 41.679C24.8778 42.0209 24.8869 42.3475 24.8945 42.6296C24.9071 43.0871 24.9198 43.5357 24.9364 43.9553C25.0497 46.7919 25.2417 48.9975 25.8104 50.5408C25.8416 50.6256 25.8836 50.755 25.9278 50.8922C26.2116 51.7656 26.686 53.2279 27.8929 54.373C29.1427 55.5593 30.6545 55.923 32.0391 55.923C32.7335 55.923 33.3961 55.8314 33.9772 55.7062C36.0486 55.2598 38.4012 54.5798 40.1031 52.1432C41.7121 49.8398 42.4942 46.3705 42.6358 40.904C42.6541 40.7494 42.671 40.6018 42.6873 40.4611L42.721 40.1722L43.1001 40.2058L43.1977 40.2123C45.3075 40.3091 47.8873 39.8592 49.4716 39.1192C50.7235 38.5351 54.7354 36.4054 53.7908 33.5301Z" fill="black"/>
<path d="M50.1832 34.0891C43.9099 35.3904 43.4786 33.2547 43.4786 33.2547C50.102 23.3723 52.871 10.8281 50.4817 7.75797C43.9629 -0.616803 32.6788 3.34395 32.4904 3.44661L32.4299 3.45764C31.1904 3.19888 29.8035 3.04489 28.2444 3.01923C25.4061 2.97257 23.2528 3.76752 21.6189 5.01339C21.6189 5.01339 1.48913 -3.32511 2.42548 15.5005C2.62461 19.5053 8.13429 45.8038 14.7058 37.8605C17.1078 34.9558 19.4287 32.4999 19.4287 32.4999C20.5813 33.2698 21.9612 33.6626 23.4079 33.5215L23.5203 33.4257C23.4853 33.7862 23.5013 34.139 23.5652 34.5566C21.8722 36.4585 22.3698 36.7923 18.9855 37.4929C15.561 38.2026 17.5727 39.4659 18.8862 39.7963C20.4786 40.1965 24.1624 40.7637 26.6514 37.26L26.5523 37.6598C27.2155 38.1941 27.6812 41.1347 27.6032 43.8005C27.5251 46.4662 27.473 48.2964 27.9955 49.726C28.5184 51.1555 29.0393 54.372 33.4883 53.4135C37.2057 52.6124 39.1322 50.5366 39.4003 47.0739C39.5903 44.6122 40.0209 44.9762 40.0479 42.7752L40.3932 41.7334C40.7912 38.3964 40.4565 37.3198 42.7466 37.8206L43.3035 37.8698C44.9889 37.9468 47.1953 37.597 48.4902 36.9919C51.2784 35.6909 52.9321 33.5184 50.1828 34.0891H50.1832Z" fill="#336791"/>
<path d="M22.7973 17.2914C22.232 17.2123 21.7201 17.2854 21.461 17.4827C21.3155 17.5936 21.2703 17.7222 21.2581 17.8106C21.2256 18.045 21.3889 18.3042 21.4893 18.4378C21.7732 18.8162 22.1879 19.0762 22.5984 19.1335C22.6579 19.142 22.7172 19.1458 22.776 19.1458C23.4605 19.1458 24.083 18.6098 24.1378 18.2142C24.2064 17.7188 23.4911 17.3883 22.7973 17.2914ZM41.5252 17.3071C41.4712 16.9187 40.784 16.808 40.1317 16.8992C39.4804 16.9904 38.8488 17.2861 38.9016 17.6753C38.9437 17.978 39.4873 18.4946 40.1307 18.4946C40.1851 18.4946 40.24 18.491 40.2952 18.4832C40.7247 18.4234 41.0398 18.1491 41.1896 17.9911C41.4174 17.7502 41.5495 17.4816 41.5252 17.3071Z" fill="white"/>
<path d="M52.2708 33.9412C52.0316 33.2139 51.2617 32.98 49.9826 33.2455C46.1847 34.0337 44.8245 33.4878 44.378 33.1571C47.3301 28.6351 49.7586 23.1689 51.0687 18.0689C51.6893 15.6531 52.0321 13.4095 52.0601 11.5808C52.0911 9.5737 51.7511 8.09876 51.0499 7.19776C48.223 3.56555 44.0738 1.6172 39.0514 1.56375C35.5986 1.52472 32.6813 2.41321 32.1158 2.66306C30.9248 2.36527 29.6265 2.18244 28.213 2.15911C25.621 2.1169 23.3804 2.7409 21.5254 4.01287C20.7197 3.71126 18.6373 2.99245 16.0906 2.57992C11.6879 1.86726 8.18934 2.40727 5.69268 4.18573C2.71361 6.308 1.3383 10.1016 1.60471 15.461C1.69436 17.264 2.71614 22.8109 4.32855 28.1229C6.451 35.1146 8.75823 39.0726 11.1857 39.8868C11.4698 39.9821 11.7974 40.0487 12.1588 40.0487C13.0443 40.0487 14.13 39.6474 15.2595 38.2819C16.6373 36.62 18.0625 34.9984 19.5333 33.4193C20.4876 33.9342 21.536 34.2218 22.6082 34.2507C22.6103 34.2789 22.613 34.3071 22.6156 34.3351C22.431 34.5564 22.2503 34.7809 22.0735 35.0085C21.3305 35.9568 21.1759 36.1543 18.7845 36.6493C18.1042 36.7906 16.2976 37.1649 16.271 38.4384C16.2423 39.8298 18.4067 40.4141 18.6533 40.476C19.5127 40.6924 20.3406 40.7991 21.1301 40.7991C23.0503 40.7991 24.7401 40.1645 26.0905 38.9366C26.049 43.8968 26.2547 48.7844 26.847 50.2736C27.3321 51.4927 28.5172 54.4721 32.2605 54.4719C32.8098 54.4719 33.4143 54.4076 34.0794 54.2642C37.9862 53.4222 39.6827 51.6859 40.339 47.8582C40.6902 45.8125 41.2928 40.9276 41.5763 38.3073C42.1745 38.495 42.9447 38.5809 43.7772 38.5807C45.5137 38.5807 47.5174 38.2097 48.7739 37.6233C50.1855 36.9641 52.7328 35.3466 52.2708 33.9412ZM42.9672 16.2351C42.9544 17.0087 42.8485 17.7109 42.7363 18.4439C42.6154 19.2323 42.4905 20.0474 42.4591 21.0369C42.4281 21.9998 42.5477 23.0009 42.6633 23.9691C42.897 25.9247 43.1368 27.938 42.2085 29.9245C42.0543 29.6497 41.9169 29.3658 41.7972 29.0742C41.6818 28.7929 41.4312 28.3412 41.0842 27.7159C39.7344 25.2818 36.5735 19.5819 38.1916 17.256C38.6736 16.5637 39.8968 15.8519 42.9672 16.2351ZM39.2455 3.1301C43.7456 3.23 47.3054 4.92277 49.8257 8.16112C51.7587 10.645 49.6301 21.9472 43.468 31.6976C43.406 31.6184 43.3437 31.5394 43.2811 31.4607L43.2031 31.3627C44.7954 28.7185 44.4841 26.1022 44.2069 23.7827C44.093 22.8308 43.9854 21.9317 44.0129 21.0871C44.0411 20.1921 44.1588 19.4243 44.2727 18.6819C44.4126 17.7671 44.555 16.8205 44.5157 15.7047C44.5451 15.5876 44.5569 15.4493 44.5415 15.2851C44.4413 14.2151 43.2263 11.0126 40.7499 8.11403C39.3952 6.52858 37.4198 4.75437 34.7225 3.5577C35.8827 3.3159 37.4692 3.09044 39.2455 3.1301ZM14.0642 37.2824C12.8196 38.7871 11.9603 38.4986 11.6776 38.404C9.83613 37.7864 7.69933 33.8727 5.81545 27.6667C4.18532 22.2967 3.23273 16.8969 3.15721 15.3827C2.91927 10.5939 4.07373 7.25651 6.58874 5.46299C10.6818 2.5445 17.4111 4.29135 20.1151 5.17729C20.0763 5.2159 20.0358 5.25195 19.9974 5.29119C15.5601 9.79704 15.6654 17.4954 15.6764 17.9661C15.6759 18.1476 15.6911 18.4047 15.7118 18.7583C15.7881 20.0531 15.9303 22.463 15.5506 25.1921C15.1979 27.7282 15.9755 30.2104 17.6834 32.0024C17.8587 32.186 18.0429 32.3607 18.2354 32.5259C17.4752 33.3446 15.823 35.1551 14.0642 37.2824ZM18.8058 30.9209C17.4292 29.4765 16.804 27.4675 17.0903 25.4084C17.491 22.5256 17.3432 20.0147 17.2637 18.6658C17.2525 18.477 17.2426 18.3116 17.2369 18.1811C17.8851 17.6032 20.889 15.9848 23.0313 16.4784C24.0088 16.7034 24.6045 17.3728 24.8521 18.5241C26.1338 24.4848 25.0217 26.9691 24.1282 28.9656C23.944 29.3768 23.77 29.7656 23.6215 30.1678L23.5064 30.4787C23.2148 31.2647 22.9436 31.9956 22.7755 32.6896C21.312 32.6854 19.8884 32.0567 18.8058 30.9207V30.9209ZM19.0305 38.9595C18.6031 38.8522 18.2188 38.6658 17.9933 38.5111C18.1817 38.4221 18.5168 38.3007 19.0982 38.1803C21.9115 37.598 22.346 37.187 23.2948 35.9757C23.5123 35.6978 23.7588 35.3831 24.1004 34.9996L24.1008 34.9992C24.6093 34.4265 24.842 34.5237 25.2639 34.6997C25.6058 34.8418 25.9389 35.2728 26.0739 35.7471C26.1378 35.971 26.2095 36.3961 25.9747 36.727C23.9928 39.5173 21.1046 39.4815 19.0305 38.9595ZM33.7537 52.7358C30.312 53.4773 29.0935 51.7116 28.2904 49.6931C27.7721 48.3899 27.5173 42.5135 27.6981 36.0238C27.7004 35.9375 27.6882 35.8542 27.6646 35.7757C27.6434 35.6207 27.6113 35.4675 27.5684 35.3171C27.2996 34.3729 26.6447 33.583 25.8589 33.2555C25.5468 33.1255 24.9738 32.8869 24.2853 33.064C24.4322 32.4557 24.6868 31.7687 24.9629 31.0249L25.0787 30.712C25.209 30.3593 25.3727 29.9938 25.5457 29.607C26.4808 27.5182 27.7614 24.6572 26.3715 18.1939C25.8509 15.773 24.1124 14.5907 21.4769 14.8654C19.897 15.0298 18.4514 15.6707 17.7305 16.0383C17.5754 16.1172 17.4337 16.1936 17.3012 16.2678C17.5024 13.8286 18.2627 9.27019 21.1065 6.38605C22.8972 4.57048 25.2818 3.67372 28.1873 3.72208C33.9121 3.81625 37.5833 6.77038 39.6551 9.23222C41.4405 11.3534 42.4072 13.4903 42.793 14.6429C39.8916 14.3462 37.9182 14.922 36.918 16.3601C34.7417 19.4881 38.1085 25.5593 39.7266 28.4771C40.0234 29.0118 40.2795 29.474 40.3601 29.6704C40.887 30.9544 41.5691 31.8117 42.0672 32.4374C42.2199 32.6292 42.368 32.8152 42.4806 32.9777C41.6018 33.2324 40.0234 33.821 40.1673 36.763C40.0512 38.2392 39.2263 45.1507 38.8071 47.5926C38.2538 50.8187 37.0732 52.0202 33.7537 52.736V52.7358ZM48.1194 36.2056C47.2208 36.6249 45.717 36.9395 44.2886 37.0071C42.7107 37.0814 41.9075 36.8294 41.7185 36.6744C41.6299 34.841 42.3085 34.6494 43.0267 34.4467C43.1396 34.4149 43.2497 34.3837 43.356 34.3463C43.422 34.4004 43.4944 34.4541 43.5737 34.5067C44.8418 35.3483 47.1037 35.4391 50.2971 34.7763L50.3321 34.7693C49.9014 35.1742 49.1644 35.7176 48.1194 36.2056Z" fill="white"/>
</g>
<defs>
<clipPath id="clip0_50_238">
<rect width="54" height="56" fill="white"/>
</clipPath>
</defs>
</svg>
