<svg width="47" height="47" viewBox="0 0 47 47" fill="none" xmlns="http://www.w3.org/2000/svg">
<g clip-path="url(#clip0_50_254)">
<path d="M39.95 0H7.05C3.15639 0 0 3.15639 0 7.05V39.95C0 43.8436 3.15639 47 7.05 47H39.95C43.8436 47 47 43.8436 47 39.95V7.05C47 3.15639 43.8436 0 39.95 0Z" fill="#113228"/>
<path d="M20.8379 9.27148H25.9785V32.8633C23.3164 33.3223 21.3887 33.5977 19.2773 33.5977C12.9434 33.5977 9.73047 30.752 9.73047 25.3359C9.73047 20.1035 13.127 16.7988 18.543 16.7988C19.3691 16.7988 20.0117 16.7988 20.8379 16.9824V9.27148ZM20.8379 21.1133C20.1953 20.9297 19.7363 20.8379 19.0938 20.8379C16.4316 20.8379 14.9629 22.4902 14.9629 25.2441C14.9629 27.998 16.3398 29.4668 19.002 29.4668C19.5527 29.4668 20.0117 29.4668 20.8379 29.2832V21.1133ZM34.1484 17.0742V28.916C34.1484 33.0469 33.873 34.9746 32.9551 36.627C32.1289 38.2793 31.0273 39.2891 28.7324 40.4824L23.959 38.1875C26.2539 37.1777 27.3555 36.168 27.998 34.791C28.7324 33.3223 29.0078 31.6699 29.0078 27.1719V17.0742H34.1484ZM29.0078 9.27148H34.1484V14.5039H29.0078V9.27148Z" fill="white"/>
</g>
<defs>
<clipPath id="clip0_50_254">
<rect width="47" height="47" fill="white"/>
</clipPath>
</defs>
</svg>
