<svg width="28" height="28" viewBox="0 0 28 28" fill="none" xmlns="http://www.w3.org/2000/svg">
<path d="M13.9999 19.8333C14.3305 19.8333 14.6076 19.7215 14.8312 19.4979C15.0548 19.2743 15.1666 18.9972 15.1666 18.6667C15.1666 18.3361 15.0548 18.059 14.8312 17.8354C14.6076 17.6118 14.3305 17.5 13.9999 17.5C13.6694 17.5 13.3923 17.6118 13.1687 17.8354C12.9451 18.059 12.8333 18.3361 12.8333 18.6667C12.8333 18.9972 12.9451 19.2743 13.1687 19.4979C13.3923 19.7215 13.6694 19.8333 13.9999 19.8333ZM12.8333 15.1667H15.1666V8.16668H12.8333V15.1667ZM13.9999 25.6667C12.386 25.6667 10.8694 25.3604 9.44992 24.7479C8.03047 24.1354 6.79575 23.3042 5.74575 22.2542C4.69575 21.2042 3.8645 19.9695 3.252 18.55C2.6395 17.1306 2.33325 15.6139 2.33325 14C2.33325 12.3861 2.6395 10.8695 3.252 9.45001C3.8645 8.03057 4.69575 6.79584 5.74575 5.74584C6.79575 4.69584 8.03047 3.86459 9.44992 3.25209C10.8694 2.63959 12.386 2.33334 13.9999 2.33334C15.6138 2.33334 17.1305 2.63959 18.5499 3.25209C19.9694 3.86459 21.2041 4.69584 22.2541 5.74584C23.3041 6.79584 24.1353 8.03057 24.7478 9.45001C25.3603 10.8695 25.6666 12.3861 25.6666 14C25.6666 15.6139 25.3603 17.1306 24.7478 18.55C24.1353 19.9695 23.3041 21.2042 22.2541 22.2542C21.2041 23.3042 19.9694 24.1354 18.5499 24.7479C17.1305 25.3604 15.6138 25.6667 13.9999 25.6667Z" fill="#DA7E8D"/>
</svg>
