<svg width="22" height="22" viewBox="0 0 22 22" fill="none" xmlns="http://www.w3.org/2000/svg">
<g clip-path="url(#clip0_124_231)">
<path d="M16.445 16.4451C14.8781 17.6395 12.97 18.3012 11 18.3334C4.58335 18.3334 0.916687 11.0001 0.916687 11.0001C2.05692 8.87515 3.63839 7.01864 5.55502 5.55508M9.07502 3.88675C9.70599 3.73905 10.352 3.66523 11 3.66675C17.4167 3.66675 21.0834 11.0001 21.0834 11.0001C20.5269 12.0411 19.8633 13.0211 19.1034 13.9242M12.9434 12.9434C12.6916 13.2136 12.388 13.4303 12.0507 13.5806C11.7133 13.7309 11.3492 13.8117 10.9799 13.8183C10.6107 13.8248 10.2439 13.7568 9.9015 13.6185C9.55907 13.4802 9.24801 13.2744 8.98688 13.0132C8.72574 12.7521 8.51988 12.441 8.38157 12.0986C8.24326 11.7562 8.17534 11.3894 8.18185 11.0202C8.18837 10.6509 8.26919 10.2868 8.41949 9.94944C8.56979 9.61211 8.7865 9.30851 9.05669 9.05675M0.916687 0.916748L21.0834 21.0834" stroke="#5A5A5A" stroke-width="1.6" stroke-linecap="round" stroke-linejoin="round"/>
</g>
<defs>
<clipPath id="clip0_124_231">
<rect width="22" height="22" fill="white"/>
</clipPath>
</defs>
</svg>
