<svg width="59" height="59" viewBox="0 0 59 59" fill="none" xmlns="http://www.w3.org/2000/svg">
<path d="M29.5 34.7547C32.4021 34.7547 34.7547 32.4021 34.7547 29.5C34.7547 26.598 32.4021 24.2454 29.5 24.2454C26.598 24.2454 24.2454 26.598 24.2454 29.5C24.2454 32.4021 26.598 34.7547 29.5 34.7547Z" fill="#61DAFB"/>
<path d="M49.4585 20.8344C48.4445 20.4657 47.3843 20.0969 46.2781 19.7743C46.5546 18.668 46.7851 17.5618 46.9695 16.5016C47.9375 10.4172 46.8773 6.13052 43.9273 4.47114C43.0515 3.96411 42.0835 3.73364 40.9773 3.73364C37.7507 3.73364 33.6484 6.13052 29.5 10.1407C25.3515 6.13052 21.2492 3.73364 18.0226 3.73364C16.9164 3.73364 15.9484 3.96411 15.0726 4.47114C12.1226 6.17661 11.0625 10.4633 12.0304 16.5016C12.2148 17.5618 12.4453 18.668 12.7218 19.7743C11.6156 20.0969 10.5554 20.4196 9.54136 20.8344C3.77964 23.0469 0.645264 26.0891 0.645264 29.5C0.645264 32.911 3.82573 35.9532 9.54136 38.1657C10.5554 38.5344 11.6156 38.9032 12.7218 39.2258C12.4453 40.3321 12.2148 41.4383 12.0304 42.4985C11.0625 48.5829 12.1226 52.8696 15.0726 54.529C15.9484 55.036 16.9164 55.2665 18.0226 55.2665C21.2953 55.2665 25.3976 52.8696 29.5 48.8594C33.6484 52.8696 37.7507 55.2665 40.9773 55.2665C42.0835 55.2665 43.0515 55.036 43.9273 54.529C46.8773 52.8235 47.9375 48.5368 46.9695 42.4985C46.7851 41.4383 46.5546 40.3321 46.2781 39.2258C47.3843 38.9032 48.4445 38.5805 49.4585 38.1657C55.2203 35.9532 58.3546 32.911 58.3546 29.5C58.3546 26.0891 55.2203 23.0469 49.4585 20.8344ZM42.6367 6.77583C44.5265 7.88208 45.1718 11.293 44.3882 16.1329C44.25 17.1008 44.0195 18.1149 43.7429 19.175C41.346 18.6219 38.8109 18.2532 36.1375 18.0227C34.5703 15.8102 32.957 13.8282 31.3437 12.0305C34.7546 8.66567 38.2117 6.36099 41.0234 6.36099C41.6226 6.36099 42.1757 6.49927 42.6367 6.77583ZM37.4742 34.1094C36.6445 35.5844 35.6765 37.0594 34.6625 38.5344C32.957 38.6727 31.2515 38.7188 29.5 38.7188C27.7023 38.7188 25.9968 38.6727 24.3375 38.5344C23.3234 37.0594 22.4015 35.5844 21.5718 34.1094C20.696 32.5883 19.8664 31.0211 19.1289 29.5C19.8664 27.979 20.696 26.4118 21.5718 24.8907C22.4015 23.4157 23.3695 21.9407 24.3835 20.4657C26.089 20.3274 27.7945 20.2813 29.546 20.2813C31.3437 20.2813 33.0492 20.3274 34.7085 20.4657C35.7226 21.9407 36.6445 23.4157 37.4742 24.8907C38.35 26.4118 39.1796 27.979 39.9171 29.5C39.1335 31.0211 38.35 32.5422 37.4742 34.1094ZM41.3 32.5883C41.9914 34.2016 42.5445 35.7688 43.0515 37.336C41.4843 37.7047 39.825 37.9813 38.0734 38.2118C38.6265 37.336 39.2257 36.4141 39.7328 35.4461C40.2859 34.4782 40.7929 33.5102 41.3 32.5883ZM29.5 45.0797C28.3937 43.8813 27.3335 42.5907 26.3195 41.254C27.3796 41.3 28.4398 41.3461 29.5 41.3461C30.5601 41.3461 31.6203 41.3 32.6804 41.254C31.6664 42.5907 30.6062 43.8813 29.5 45.0797ZM20.9265 38.1657C19.175 37.9352 17.5156 37.6586 15.9484 37.2899C16.4554 35.7688 17.0085 34.1555 17.7 32.5422C18.207 33.4641 18.714 34.4321 19.2671 35.354C19.8203 36.368 20.3734 37.2438 20.9265 38.1657ZM17.7 26.4118C17.0085 24.7985 16.4554 23.2313 15.9484 21.6641C17.5156 21.2954 19.175 21.0188 20.9265 20.7883C20.3734 21.6641 19.7742 22.586 19.2671 23.554C18.714 24.5219 18.207 25.4899 17.7 26.4118ZM29.5 13.9204C30.6062 15.1188 31.6664 16.4094 32.6804 17.7461C31.6203 17.7 30.5601 17.654 29.5 17.654C28.4398 17.654 27.3796 17.7 26.3195 17.7461C27.3335 16.4094 28.3937 15.1188 29.5 13.9204ZM39.7328 23.6L38.0734 20.8344C39.825 21.0649 41.4843 21.3415 43.0515 21.7102C42.5445 23.2313 41.9914 24.8446 41.3 26.4579C40.7929 25.4899 40.2859 24.5219 39.7328 23.6ZM14.6117 16.1329C13.8281 11.293 14.4734 7.88208 16.3632 6.77583C16.8242 6.49927 17.3773 6.36099 17.9765 6.36099C20.7421 6.36099 24.1992 8.61958 27.6562 12.0305C26.0429 13.7821 24.4296 15.8102 22.8625 18.0227C20.189 18.2532 17.6539 18.668 15.257 19.175C14.9804 18.1149 14.796 17.1008 14.6117 16.1329ZM3.22651 29.5C3.22651 27.3336 5.85386 25.029 10.4632 23.3235C11.3851 22.9547 12.3992 22.6321 13.4132 22.3555C14.1507 24.6602 15.0726 27.1032 16.1789 29.5461C15.0726 31.9891 14.1046 34.386 13.4132 36.6907C7.0523 34.8469 3.22651 32.0813 3.22651 29.5ZM16.3632 52.2243C14.4734 51.118 13.8281 47.7071 14.6117 42.8672C14.75 41.8993 14.9804 40.8852 15.257 39.825C17.6539 40.3782 20.189 40.7469 22.8625 40.9774C24.4296 43.1899 26.0429 45.1719 27.6562 46.9696C24.2453 50.3344 20.7882 52.6391 17.9765 52.6391C17.3773 52.6391 16.8242 52.5008 16.3632 52.2243ZM44.3882 42.8672C45.1718 47.7071 44.5265 51.118 42.6367 52.2243C42.1757 52.5008 41.6226 52.6391 41.0234 52.6391C38.2578 52.6391 34.8007 50.3805 31.3437 46.9696C32.957 45.218 34.5703 43.1899 36.1375 40.9774C38.8109 40.7469 41.346 40.3321 43.7429 39.825C44.0195 40.8852 44.2039 41.8993 44.3882 42.8672ZM48.5367 35.6766C47.6148 36.0454 46.6007 36.368 45.5867 36.6446C44.8492 34.3399 43.9273 31.8969 42.821 29.454C43.9273 27.011 44.8953 24.6141 45.5867 22.3094C51.9476 24.1532 55.7734 26.9188 55.7734 29.5C55.7734 31.6665 53.1 33.9711 48.5367 35.6766Z" fill="#61DAFB"/>
</svg>
