<svg width="69" height="69" viewBox="0 0 69 69" fill="none" xmlns="http://www.w3.org/2000/svg">
<g clip-path="url(#clip0_50_250)">
<path d="M53.1875 27.3412C51.0314 26.5987 49.1282 25.2634 47.6963 23.4887C46.118 21.5114 44.1084 19.9213 41.8212 18.8399C39.534 17.7586 37.0297 17.2148 34.5 17.25C31.0971 17.009 27.7282 18.0586 25.0643 20.1897C22.4004 22.3208 20.6369 25.3771 20.125 28.75C21.1332 27.0631 22.6506 25.7395 24.4588 24.9697C26.267 24.1999 28.2728 24.0237 30.1875 24.4662C32.34 25.2304 34.24 26.5734 35.6787 28.3475C37.2656 30.309 39.2791 31.8827 41.5658 32.9489C43.8525 34.015 46.3523 34.5455 48.875 34.5C52.2779 34.741 55.6468 33.6914 58.3107 31.5603C60.9746 29.4292 62.7381 26.3728 63.25 23C62.2601 24.7071 60.7476 26.0507 58.9357 26.8324C57.1238 27.6141 55.1085 27.7925 53.1875 27.3412ZM15.8125 41.6587C17.9686 42.4013 19.8718 43.7365 21.3037 45.5112C22.882 47.4886 24.8916 49.0787 27.1788 50.16C29.466 51.2414 31.9703 51.7852 34.5 51.75C37.9029 51.991 41.2718 50.9414 43.9357 48.8103C46.5996 46.6792 48.3631 43.6228 48.875 40.25C47.8668 41.9369 46.3494 43.2605 44.5412 44.0303C42.733 44.8001 40.7272 44.9763 38.8125 44.5337C36.66 43.7695 34.76 42.4266 33.3213 40.6525C31.7301 38.6958 29.7159 37.1255 27.4301 36.0599C25.1444 34.9942 22.6467 34.4608 20.125 34.5C16.7221 34.259 13.3532 35.3086 10.6893 37.4397C8.02536 39.5708 6.26187 42.6271 5.75 46C6.73988 44.2929 8.25242 42.9493 10.0643 42.1676C11.8762 41.3859 13.8915 41.2075 15.8125 41.6587Z" fill="#00C6FF"/>
</g>
<defs>
<clipPath id="clip0_50_250">
<rect width="69" height="69" fill="white"/>
</clipPath>
</defs>
</svg>
